<svg enable-background="new 0 0 128 128" viewBox="0 0 128 128" xmlns="http://www.w3.org/2000/svg" xmlns:xlink="http://www.w3.org/1999/xlink"><linearGradient id="a" gradientUnits="userSpaceOnUse" x1="59.013" x2="71.669" y1="73.868" y2="118.12"><stop offset="0" stop-color="#fbc02d"/><stop offset="1" stop-color="#ffeb3b"/></linearGradient><radialGradient id="b" cx="59.358" cy="-4.6553" gradientUnits="userSpaceOnUse" r="110.91"><stop offset=".2636" stop-color="#e3f2fd"/><stop offset=".9167" stop-color="#90caf9"/></radialGradient><path d="m51.04 121.76 13.8-24.27c.39-.68-.1-1.53-.89-1.54l-26.19-.1c-.95 0-1.39-1.17-.68-1.8l34.24-30.28c.85-.75 2.12.23 1.6 1.24l-10.37 20.07c-.35.68.14 1.5.91 1.5l26.78.17c.94.01 1.38 1.16.68 1.79l-38.3 34.49c-.87.79-2.16-.25-1.58-1.27z" fill="url(#a)"/><path d="m65.41 73.01-5.52 10.69c-.65 1.25-.6 2.72.13 3.93s2.01 1.94 3.42 1.94l21.69.14-25.47 22.93 7.78-13.68c.71-1.24.7-2.78-.02-4.01-.71-1.23-2.05-2-3.47-2.01l-21.01-.08zm6.58-9.5c-.23 0-.46.08-.67.27l-34.24 30.28c-.71.63-.27 1.8.68 1.8l26.19.1c.79 0 1.28.85.89 1.54l-13.8 24.27c-.44.77.19 1.55.9 1.55.23 0 .47-.08.68-.27l38.3-34.49c.7-.63.26-1.79-.68-1.79l-26.78-.17c-.77-.01-1.26-.82-.91-1.5l10.36-20.06c.4-.79-.22-1.53-.92-1.53z" fill="#424242" opacity=".2"/><path d="m20.02 85.12c-1.44 3.13-5.14 4.51-8.28 3.07-3.13-1.44-4.51-5.14-3.07-8.28s10.8-9.36 10.8-9.36 1.99 11.43.55 14.57z" fill="#64b5f6"/><path d="m23.71 107.43c-1.44 3.13-5.14 4.51-8.28 3.07-3.13-1.44-4.51-5.14-3.07-8.28 1.44-3.13 10.8-9.36 10.8-9.36s1.99 11.43.55 14.57z" fill="#90caf9"/><path d="m44.6 119.67c-1.44 3.13-5.14 4.51-8.28 3.07-3.13-1.44-4.51-5.14-3.07-8.28s10.8-9.36 10.8-9.36 1.99 11.43.55 14.57z" fill="#90caf9"/><path d="m112.91 85.12c-1.44 3.13-5.14 4.51-8.28 3.07-3.13-1.44-4.51-5.14-3.07-8.28 1.44-3.13 10.8-9.36 10.8-9.36s1.98 11.43.55 14.57z" fill="#64b5f6"/><path d="m88.84 119.67c-1.44 3.13-5.14 4.51-8.28 3.07-3.13-1.44-4.51-5.14-3.07-8.28 1.44-3.13 10.8-9.36 10.8-9.36s1.99 11.43.55 14.57z" fill="#90caf9"/><path d="m116.01 107.46c-1.44 3.13-5.14 4.51-8.28 3.07-3.13-1.44-4.51-5.14-3.07-8.28 1.44-3.13 10.8-9.36 10.8-9.36s1.99 11.44.55 14.57z" fill="#90caf9"/><g fill="#424242"><path d="m17.97 74.03c.58 4.44.81 8.97.23 10.25-.69 1.5-2.21 2.48-3.86 2.48-.61 0-1.2-.13-1.77-.39-1.03-.47-1.81-1.32-2.21-2.38-.39-1.06-.35-2.22.12-3.25.65-1.41 4.21-4.33 7.49-6.71m1.5-3.47s-9.36 6.22-10.8 9.36c-1.44 3.13-.06 6.84 3.07 8.28.84.39 1.73.57 2.6.57 2.37 0 4.63-1.35 5.68-3.64 1.44-3.15-.55-14.57-.55-14.57z" opacity=".2"/><path d="m21.66 96.34c.58 4.44.81 8.97.23 10.25-.69 1.5-2.21 2.48-3.86 2.48-.61 0-1.2-.13-1.77-.39-2.13-.98-3.06-3.5-2.09-5.63.65-1.41 4.21-4.33 7.49-6.71m1.5-3.48s-9.36 6.22-10.8 9.36c-1.44 3.13-.06 6.84 3.07 8.28.84.39 1.73.57 2.6.57 2.37 0 4.63-1.35 5.68-3.64 1.44-3.14-.55-14.57-.55-14.57z" opacity=".2"/><path d="m42.56 108.58c.58 4.44.81 8.98.23 10.25-.69 1.5-2.21 2.48-3.86 2.48-.61 0-1.2-.13-1.77-.39-1.03-.47-1.81-1.32-2.21-2.38-.39-1.06-.35-2.22.12-3.25.65-1.41 4.2-4.33 7.49-6.71m1.49-3.48s-9.36 6.22-10.8 9.36-.06 6.84 3.07 8.28c.84.39 1.73.57 2.6.57 2.37 0 4.63-1.35 5.68-3.64 1.44-3.14-.55-14.57-.55-14.57z" opacity=".2"/><path d="m110.86 74.03c.58 4.44.81 8.97.23 10.25-.69 1.5-2.21 2.48-3.86 2.48-.61 0-1.2-.13-1.77-.39-1.03-.47-1.81-1.32-2.21-2.38-.39-1.06-.35-2.22.12-3.25.65-1.41 4.21-4.33 7.49-6.71m1.5-3.47s-9.36 6.22-10.8 9.36c-1.44 3.13-.06 6.84 3.07 8.28.84.39 1.73.57 2.6.57 2.37 0 4.63-1.35 5.68-3.64 1.43-3.15-.55-14.57-.55-14.57z" opacity=".2"/><path d="m86.79 108.58c.58 4.44.81 8.97.23 10.25-.69 1.5-2.21 2.48-3.86 2.48-.61 0-1.2-.13-1.77-.39-1.03-.47-1.81-1.32-2.21-2.38-.39-1.06-.35-2.22.12-3.25.65-1.41 4.21-4.33 7.49-6.71m1.5-3.48s-9.36 6.22-10.8 9.36c-1.44 3.13-.06 6.84 3.07 8.28.84.39 1.73.57 2.6.57 2.37 0 4.63-1.35 5.68-3.64 1.44-3.14-.55-14.57-.55-14.57z" opacity=".2"/><path d="m113.96 96.37c.58 4.44.81 8.98.23 10.25-.69 1.5-2.21 2.48-3.86 2.48-.61 0-1.2-.13-1.77-.39-2.13-.98-3.06-3.5-2.09-5.63.65-1.4 4.21-4.33 7.49-6.71m1.5-3.47s-9.36 6.22-10.8 9.36c-1.44 3.13-.06 6.84 3.07 8.28.84.39 1.73.57 2.6.57 2.37 0 4.63-1.35 5.68-3.64 1.44-3.14-.55-14.57-.55-14.57z" opacity=".2"/></g><path d="m103.18 36.62c-.63 0-1.24.05-1.85.12.48-1.61.74-3.32.74-5.08 0-9.85-7.99-17.84-17.84-17.84-4.19 0-8.04 1.46-11.09 3.88-4.09-7.78-12.25-13.08-21.65-13.08-13.51 0-24.46 10.95-24.46 24.46 0 .49.02.97.05 1.45-10.19 1.24-18.07 9.91-18.07 20.43 0 11.26 9.03 20.4 20.24 20.59 3.76 6.52 11.23 10.99 19.88 11.06 8.36.06 15.69-4.01 19.65-10.13 3.19 3.49 7.78 5.7 12.88 5.7 7.31 0 13.57-4.5 16.18-10.88 1.67.6 3.47.95 5.34.95 8.74 0 15.82-7.08 15.82-15.82-.01-8.73-7.09-15.81-15.82-15.81z" fill="url(#b)"/><path d="m51.49 7.62c7.99 0 15.27 4.4 19 11.47.42.79 1.16 1.35 2.04 1.54.2.04.41.06.62.06.67 0 1.33-.23 1.87-.65 2.65-2.11 5.84-3.23 9.22-3.23 8.18 0 14.84 6.66 14.84 14.84 0 1.42-.21 2.84-.62 4.23-.29.97-.07 2.01.58 2.78.57.68 1.42 1.07 2.3 1.07.12 0 .23-.01.35-.02.56-.07 1.05-.1 1.5-.1 7.07 0 12.82 5.75 12.82 12.82s-5.75 12.82-12.82 12.82c-1.45 0-2.91-.26-4.33-.77-.33-.12-.68-.18-1.01-.18-1.19 0-2.3.71-2.78 1.87-2.23 5.47-7.49 9.01-13.4 9.01-4.04 0-7.93-1.72-10.68-4.73-.57-.63-1.38-.98-2.22-.98-.08 0-.16 0-.25.01-.93.08-1.77.77-2.27 1.55-3.51 5.42-9.99 8.97-16.93 8.97h-.17c-7.31 0-13.94-3.91-17.3-9.76-.53-.91-1.49-1.58-2.55-1.6-9.54-.16-17.29-8.1-17.29-17.63 0-8.87 6.64-16.4 15.44-17.48 1.57-.19 2.72-1.59 2.63-3.17-.03-.48-.04-.9-.04-1.29-.01-11.82 9.62-21.45 21.45-21.45m0-3c-13.51 0-24.46 10.95-24.46 24.46 0 .49.02.98.05 1.46-10.18 1.24-18.07 9.91-18.07 20.42 0 11.26 9.03 20.58 20.24 20.77 3.75 6.53 11.23 11.27 19.88 11.27h.19c8.28 0 15.51-4.26 19.45-10.33 3.2 3.5 7.78 5.61 12.89 5.61 7.31 0 13.57-4.55 16.18-10.93 1.67.6 3.47.92 5.34.92 8.74 0 15.82-7.09 15.82-15.83s-7.08-15.82-15.82-15.82c-.63 0-1.24.04-1.85.11.48-1.61.74-3.32.74-5.08 0-9.85-7.99-17.84-17.84-17.84-4.19 0-8.04 1.46-11.09 3.88-4.09-7.77-12.25-13.07-21.65-13.07z" fill="#424242" opacity=".2"/></svg>